<mxfile host="app.diagrams.net" modified="2023-10-02T12:33:44.787Z" agent="Mozilla/5.0 (Windows NT 10.0; Win64; x64) AppleWebKit/537.36 (KHTML, like Gecko) Chrome/117.0.0.0 Safari/537.36" etag="Z3GqvkuCNtJnbRUV-AMN" version="21.7.1" type="device">
  <diagram name="Page-1" id="m-6eVjseghKcDe4rf9if">
    <mxGraphModel dx="1290" dy="691" grid="1" gridSize="10" guides="1" tooltips="1" connect="1" arrows="1" fold="1" page="1" pageScale="1" pageWidth="850" pageHeight="1100" math="0" shadow="0">
      <root>
        <mxCell id="0" />
        <mxCell id="1" parent="0" />
        <mxCell id="sXb_Uoa1ZoH-F_PO8XNI-1" value="console.log(&quot;start&quot;)&lt;br&gt;&lt;br&gt;setTImepour(() =&amp;gt; {&lt;br&gt;&lt;span style=&quot;white-space: pre;&quot;&gt;&#x9;&lt;/span&gt;&lt;span style=&quot;white-space: pre;&quot;&gt;&#x9;&lt;/span&gt;&lt;span style=&quot;white-space: pre;&quot;&gt;&#x9;&lt;/span&gt;console.log(&quot;setImeout&quot;)&lt;br&gt;}, 5000)&lt;br&gt;&lt;br&gt;Primese().resolve(console.log(&quot;Promise&quot;))&lt;br&gt;&lt;br&gt;console.log(&quot;end&quot;)" style="rounded=0;whiteSpace=wrap;html=1;" parent="1" vertex="1">
          <mxGeometry x="70" y="15" width="280" height="280" as="geometry" />
        </mxCell>
        <mxCell id="sXb_Uoa1ZoH-F_PO8XNI-2" value="WebAPI:&lt;br&gt;&lt;br&gt;setImeout() waits for&amp;nbsp; 5000ms then puts the callback into the taksqueue" style="rounded=0;whiteSpace=wrap;html=1;" parent="1" vertex="1">
          <mxGeometry x="600" y="15" width="160" height="290" as="geometry" />
        </mxCell>
        <mxCell id="sXb_Uoa1ZoH-F_PO8XNI-3" value="Task queue" style="rounded=0;whiteSpace=wrap;html=1;" parent="1" vertex="1">
          <mxGeometry x="370" y="360" width="390" height="60" as="geometry" />
        </mxCell>
        <mxCell id="sXb_Uoa1ZoH-F_PO8XNI-6" value="MacoTaskQueue" style="rounded=0;whiteSpace=wrap;html=1;" parent="1" vertex="1">
          <mxGeometry x="370" y="440" width="390" height="60" as="geometry" />
        </mxCell>
        <mxCell id="sXb_Uoa1ZoH-F_PO8XNI-7" value="CallStack" style="rounded=0;whiteSpace=wrap;html=1;" parent="1" vertex="1">
          <mxGeometry x="30" y="330" width="120" height="200" as="geometry" />
        </mxCell>
        <mxCell id="sXb_Uoa1ZoH-F_PO8XNI-8" value="event loop" style="ellipse;whiteSpace=wrap;html=1;" parent="1" vertex="1">
          <mxGeometry x="200" y="380" width="120" height="80" as="geometry" />
        </mxCell>
        <mxCell id="sXb_Uoa1ZoH-F_PO8XNI-10" value="" style="endArrow=classic;html=1;rounded=0;exitX=-0.01;exitY=0.39;exitDx=0;exitDy=0;exitPerimeter=0;entryX=0.69;entryY=-0.017;entryDx=0;entryDy=0;entryPerimeter=0;" parent="1" source="sXb_Uoa1ZoH-F_PO8XNI-3" target="sXb_Uoa1ZoH-F_PO8XNI-8" edge="1">
          <mxGeometry width="50" height="50" relative="1" as="geometry">
            <mxPoint x="400" y="330" as="sourcePoint" />
            <mxPoint x="450" y="280" as="targetPoint" />
          </mxGeometry>
        </mxCell>
        <mxCell id="sXb_Uoa1ZoH-F_PO8XNI-11" value="" style="endArrow=classic;html=1;rounded=0;exitX=-0.01;exitY=0.39;exitDx=0;exitDy=0;exitPerimeter=0;entryX=0.69;entryY=-0.017;entryDx=0;entryDy=0;entryPerimeter=0;" parent="1" edge="1">
          <mxGeometry width="50" height="50" relative="1" as="geometry">
            <mxPoint x="376" y="460" as="sourcePoint" />
            <mxPoint x="293" y="456" as="targetPoint" />
          </mxGeometry>
        </mxCell>
        <mxCell id="sXb_Uoa1ZoH-F_PO8XNI-12" value="" style="endArrow=classic;html=1;rounded=0;entryX=1;entryY=0.5;entryDx=0;entryDy=0;" parent="1" target="sXb_Uoa1ZoH-F_PO8XNI-7" edge="1">
          <mxGeometry width="50" height="50" relative="1" as="geometry">
            <mxPoint x="200" y="410" as="sourcePoint" />
            <mxPoint x="250" y="360" as="targetPoint" />
            <Array as="points">
              <mxPoint x="220" y="390" />
            </Array>
          </mxGeometry>
        </mxCell>
        <mxCell id="sXb_Uoa1ZoH-F_PO8XNI-13" value="" style="endArrow=classic;html=1;rounded=0;exitX=1;exitY=0.5;exitDx=0;exitDy=0;entryX=0.003;entryY=0.476;entryDx=0;entryDy=0;entryPerimeter=0;" parent="1" source="sXb_Uoa1ZoH-F_PO8XNI-1" target="sXb_Uoa1ZoH-F_PO8XNI-2" edge="1">
          <mxGeometry width="50" height="50" relative="1" as="geometry">
            <mxPoint x="400" y="330" as="sourcePoint" />
            <mxPoint x="450" y="280" as="targetPoint" />
          </mxGeometry>
        </mxCell>
        <mxCell id="sXb_Uoa1ZoH-F_PO8XNI-14" value="" style="endArrow=classic;html=1;rounded=0;entryX=0.363;entryY=0.003;entryDx=0;entryDy=0;entryPerimeter=0;exitX=0.003;exitY=0.708;exitDx=0;exitDy=0;exitPerimeter=0;" parent="1" source="sXb_Uoa1ZoH-F_PO8XNI-2" target="sXb_Uoa1ZoH-F_PO8XNI-3" edge="1">
          <mxGeometry width="50" height="50" relative="1" as="geometry">
            <mxPoint x="400" y="330" as="sourcePoint" />
            <mxPoint x="450" y="280" as="targetPoint" />
          </mxGeometry>
        </mxCell>
        <mxCell id="sXb_Uoa1ZoH-F_PO8XNI-15" value="" style="endArrow=classic;html=1;rounded=0;entryX=0.724;entryY=-0.01;entryDx=0;entryDy=0;entryPerimeter=0;exitX=0.453;exitY=0.994;exitDx=0;exitDy=0;exitPerimeter=0;" parent="1" source="sXb_Uoa1ZoH-F_PO8XNI-2" target="sXb_Uoa1ZoH-F_PO8XNI-6" edge="1">
          <mxGeometry width="50" height="50" relative="1" as="geometry">
            <mxPoint x="400" y="330" as="sourcePoint" />
            <mxPoint x="450" y="280" as="targetPoint" />
          </mxGeometry>
        </mxCell>
        <mxCell id="sXb_Uoa1ZoH-F_PO8XNI-16" value="&lt;h1&gt;Output&lt;/h1&gt;&lt;p&gt;start&lt;br&gt;end&lt;br&gt;Promise&lt;br&gt;SetImeout&lt;/p&gt;" style="text;html=1;strokeColor=none;fillColor=none;spacing=5;spacingTop=-20;whiteSpace=wrap;overflow=hidden;rounded=0;" parent="1" vertex="1">
          <mxGeometry x="290" y="550" width="190" height="120" as="geometry" />
        </mxCell>
      </root>
    </mxGraphModel>
  </diagram>
</mxfile>
